<svg width="1582" height="1616" viewBox="0 0 1582 1616" fill="none" xmlns="http://www.w3.org/2000/svg">
<g clip-path="url(#clip0_90_18)">
<path d="M243.589 774.587L234.423 798.615L232.693 798.441C232.232 794.494 230.618 791.012 227.851 787.994C225.545 785.44 221.971 783.293 217.128 781.552C212.286 779.811 205.484 779.346 196.721 780.159V889.675C196.721 891.068 197.125 892.345 197.932 893.506C198.854 894.55 200.007 895.189 201.391 895.421L205.887 896.292V897.684H172.163V896.292L176.66 895.421C178.043 895.189 179.139 894.55 179.946 893.506C180.868 892.345 181.329 891.068 181.329 889.675V780.159C172.567 779.346 165.764 779.811 160.922 781.552C156.08 783.293 152.506 785.44 150.2 787.994C147.433 791.012 145.818 794.494 145.357 798.441L143.628 798.615L134.462 774.587L136.018 774.065C136.71 774.645 137.633 775.168 138.785 775.632C139.708 776.096 140.918 776.503 142.417 776.851C144.031 777.083 145.991 777.199 148.297 777.199H229.753C232.059 777.199 233.961 777.083 235.46 776.851C237.074 776.503 238.343 776.096 239.265 775.632C240.418 775.168 241.34 774.645 242.032 774.065L243.589 774.587Z" fill="#BE894B"/>
<path d="M306.165 774.413C317.579 774.413 326.227 776.444 332.107 780.507C338.102 784.57 340.679 789.893 341.355 798.615C341.355 806.896 339.889 817.778 333.317 825.689C329.628 829.404 324.785 832.073 318.79 833.698C312.91 835.207 306.108 835.439 298.383 834.395C290.773 833.234 282.818 830.39 274.517 825.863V889.501C274.517 890.894 274.92 892.171 275.727 893.332C276.65 894.376 277.803 895.015 279.186 895.247L283.683 896.117V897.51H249.959V896.117L254.456 895.247C255.839 895.015 256.934 894.376 257.741 893.332C258.664 892.171 259.125 890.894 259.125 889.501V785.208C259.125 783.815 258.664 782.596 257.741 781.552C256.934 780.391 255.839 779.695 254.456 779.462L249.959 778.592V777.199H254.456C259.413 777.199 263.794 777.083 267.599 776.851C271.519 776.503 275.324 776.154 279.013 775.806C282.818 775.458 286.796 775.168 290.946 774.936C295.212 774.587 300.285 774.413 306.165 774.413ZM325.142 798.441C324.466 792.613 323.229 789.503 321.384 786.949C319.539 784.28 317.118 782.248 314.121 780.855C311.123 779.346 307.722 778.418 303.917 778.07C300.112 777.605 296.365 777.489 292.676 777.721C288.986 777.837 285.527 778.186 282.299 778.766C279.071 779.23 276.477 779.637 274.517 779.985V821.859C274.517 821.859 278.437 824.702 281.435 826.211C284.547 827.604 287.891 828.765 291.465 829.694C295.039 830.506 298.729 830.971 302.533 831.087C306.338 831.087 309.797 830.448 312.91 829.171C316.023 827.778 318.559 825.689 320.519 822.903C326.338 814.633 325.817 804.175 325.142 798.615V798.441Z" fill="#BE894B"/>
<path d="M412.567 775.284C421.329 775.284 429.515 776.909 437.124 780.159C444.849 783.409 451.536 787.878 457.186 793.565C462.951 799.137 467.505 805.695 470.848 813.24C474.192 820.785 475.864 828.852 475.864 837.442C475.864 846.031 474.192 854.098 470.848 861.643C467.505 869.188 462.951 875.804 457.186 881.492C451.536 887.064 444.849 891.474 437.124 894.725C429.515 897.975 421.329 899.6 412.567 899.6C403.804 899.6 395.561 897.975 387.836 894.725C380.226 891.474 373.539 887.064 367.775 881.492C362.125 875.804 357.629 869.188 354.285 861.643C350.942 854.098 349.27 846.031 349.27 837.442C349.27 828.852 350.942 820.785 354.285 813.24C357.629 805.695 362.125 799.137 367.775 793.565C373.539 787.878 380.226 783.409 387.836 780.159C395.561 776.909 403.804 775.284 412.567 775.284ZM412.567 896.117C419.138 896.117 425.249 894.608 430.899 891.591C436.663 888.457 441.679 884.278 445.945 879.054C450.326 873.715 453.727 867.505 456.148 860.424C458.685 853.228 459.953 845.567 459.953 837.442C459.953 829.316 458.685 821.714 456.148 814.633C453.727 807.552 450.326 801.342 445.945 796.003C441.679 790.664 436.663 786.485 430.899 783.467C425.249 780.333 419.138 778.766 412.567 778.766C405.995 778.766 399.827 780.333 394.062 783.467C388.412 786.485 383.397 790.664 379.016 796.003C374.75 801.342 371.349 807.552 368.812 814.633C366.391 821.714 365.18 829.316 365.18 837.442C365.18 845.567 366.391 853.228 368.812 860.424C371.349 867.505 374.75 873.715 379.016 879.054C383.397 884.278 388.412 888.457 394.062 891.591C399.827 894.608 405.995 896.117 412.567 896.117Z" fill="#BE894B"/>
<path d="M590.301 804.012L588.226 804.883C587.304 803.722 586.324 802.561 585.286 801.401C584.364 800.24 583.326 799.079 582.173 797.918C580.213 795.945 577.965 793.798 575.428 791.476C573.007 789.155 570.355 786.949 567.473 784.86C563.553 782.887 558.884 781.436 553.465 780.507C548.161 779.578 542.858 779.172 537.554 779.288C532.366 779.288 527.466 779.811 522.854 780.855C518.357 781.784 514.956 783.119 512.65 784.86L512.477 889.327C512.477 890.72 512.881 891.997 513.688 893.158C514.61 894.202 515.763 894.841 517.147 895.073L521.643 895.943V897.336H487.92V895.943L492.416 895.073C493.8 894.841 494.895 894.202 495.702 893.158C496.624 891.997 497.085 890.72 497.085 889.327V785.034C497.085 783.641 496.624 782.422 495.702 781.378C494.895 780.217 493.8 779.52 492.416 779.288L487.92 778.418V777.025H583.384L590.301 804.012Z" fill="#BE894B"/>
<path d="M742.434 895.769V897.162H706.808V895.769L708.364 895.421C709.863 895.189 710.901 894.376 711.477 892.983C712.169 891.591 712.111 890.256 711.304 888.979L696.085 861.817H630.54L617.051 885.845C615.898 887.818 615.782 889.849 616.705 891.939C617.742 893.912 619.414 895.015 621.72 895.247L626.563 895.769V897.162H592.839V895.769L596.471 895.421C600.045 895.073 603.331 893.912 606.328 891.939C609.326 889.965 611.747 887.412 613.592 884.278L661.324 799.834L655.79 790.083C654.06 787.065 651.697 784.57 648.699 782.596C645.817 780.623 642.589 779.462 639.014 779.114L633.307 778.592V777.199H669.971V778.592C669.164 778.824 668.588 779.346 668.242 780.159C668.011 780.855 668.069 781.552 668.415 782.248L726.696 886.193C728.195 888.747 730.097 890.836 732.403 892.461C734.824 894.086 737.476 895.131 740.359 895.595L742.434 895.769ZM694.01 857.987L663.572 803.664L632.788 857.987H694.01Z" fill="#BE894B"/>
<path d="M840.78 774.587L831.614 798.615L829.885 798.441C829.423 794.494 827.809 791.012 825.042 787.994C822.736 785.44 819.162 783.293 814.32 781.552C809.477 779.811 802.675 779.346 793.913 780.159V889.675C793.913 891.068 794.316 892.345 795.123 893.506C796.046 894.55 797.199 895.189 798.582 895.421L803.079 896.292V897.684H769.355V896.292L773.851 895.421C775.235 895.189 776.33 894.55 777.137 893.506C778.06 892.345 778.521 891.068 778.521 889.675V780.159C769.758 779.346 762.956 779.811 758.114 781.552C753.271 783.293 749.697 785.44 747.391 787.994C744.624 791.012 743.01 794.494 742.549 798.441L740.819 798.615L731.653 774.587L733.21 774.065C733.902 774.645 734.824 775.168 735.977 775.632C736.899 776.096 738.11 776.503 739.609 776.851C741.223 777.083 743.183 777.199 745.489 777.199H826.945C829.25 777.199 831.153 777.083 832.652 776.851C834.266 776.503 835.534 776.096 836.456 775.632C837.609 775.168 838.532 774.645 839.224 774.065L840.78 774.587Z" fill="#BE894B"/>
<path d="M966.74 870.871L951.867 896.988H857.786V895.595L862.283 894.725C863.666 894.492 864.762 893.854 865.569 892.809C866.491 891.649 866.952 890.372 866.952 888.979V784.686C866.952 783.293 866.491 782.074 865.569 781.029C864.762 779.869 863.666 779.172 862.283 778.94L857.786 778.07V776.677H953.251L960.168 804.012L958.093 804.883C956.248 802.561 954.231 800.24 952.04 797.918C950.08 795.945 947.832 793.798 945.295 791.476C942.874 789.155 940.222 786.949 937.34 784.86C933.42 782.887 928.808 781.436 923.505 780.507C918.201 779.578 912.897 779.172 907.594 779.288C902.29 779.288 897.333 779.811 892.721 780.855C888.224 781.784 884.823 783.119 882.517 784.86V828.736C884.131 828.968 886.322 829.2 889.089 829.433C891.971 829.549 895.084 829.316 898.428 828.736C899.696 827.575 900.734 826.066 901.541 824.209C902.463 822.352 903.213 820.495 903.789 818.638C904.481 816.548 905.057 814.343 905.518 812.021H907.248C907.824 816.78 908.574 821.075 909.496 824.906C910.419 828.736 911.398 832.16 912.436 835.178C913.474 838.08 914.396 840.518 915.203 842.491C916.126 844.348 916.76 845.683 917.106 846.496L915.376 847.366C912.263 843.884 909.381 841.04 906.729 838.835C904.077 836.513 901.944 834.772 900.33 833.611C896.641 832.45 893.124 831.986 889.781 832.218C886.552 832.45 884.074 832.799 882.344 833.263V889.327C883.843 890.488 885.976 891.474 888.743 892.287C891.51 893.099 894.681 893.738 898.255 894.202C901.829 894.55 905.634 894.783 909.669 894.899C913.704 894.899 917.74 894.725 921.775 894.376C925.81 893.912 929.673 893.332 933.362 892.635C937.167 891.823 940.568 890.836 943.566 889.675C946.563 887.47 949.388 885.264 952.04 883.059C954.807 880.738 957.171 878.59 959.131 876.617C961.436 874.411 963.512 872.264 965.357 870.175L966.74 870.871Z" fill="#BE894B"/>
<path d="M1050.36 803.664C1042.41 819.102 1035.43 832.16 1029.44 842.839C1023.44 853.402 1018.25 862.224 1013.87 869.304C1009.6 876.269 1005.97 881.724 1002.98 885.671C999.978 889.617 997.441 892.519 995.366 894.376C993.406 896.234 991.792 897.394 990.524 897.859C989.255 898.323 988.16 898.555 987.238 898.555C984.932 899.251 982.741 899.309 980.666 898.729C978.591 898.149 976.804 897.162 975.305 895.769C973.921 894.376 972.884 892.635 972.192 890.546C971.615 888.34 971.673 885.903 972.365 883.233C972.941 880.447 974.382 878.358 976.688 876.965C978.994 875.572 981.473 875.282 984.125 876.095C985.393 876.327 986.546 876.907 987.584 877.836C988.621 878.764 989.486 879.867 990.178 881.144C990.87 882.305 991.331 883.639 991.561 885.148C991.792 886.541 991.792 887.934 991.561 889.327C991.331 890.14 990.985 890.952 990.524 891.765C990.063 892.461 989.544 893.158 988.967 893.854C989.544 893.854 990.408 893.448 991.561 892.635C992.83 891.823 994.444 890.256 996.404 887.934C998.479 885.497 1000.96 882.13 1003.84 877.836C1006.84 873.425 1010.41 867.737 1014.56 860.773C1018.83 853.808 1023.73 845.335 1029.26 835.352C1034.8 825.37 1041.08 813.53 1048.11 799.834L1042.58 790.083C1040.85 787.065 1038.49 784.57 1035.49 782.596C1032.61 780.623 1029.38 779.462 1025.8 779.114L1020.1 778.592V777.199H1056.76V778.592C1055.95 778.824 1055.38 779.346 1055.03 780.159C1054.8 780.855 1054.86 781.552 1055.2 782.248L1113.49 886.193C1114.98 888.747 1116.89 890.836 1119.19 892.461C1121.61 894.086 1124.27 895.131 1127.15 895.595L1129.22 895.769V897.162H1093.6V895.769L1095.15 895.421C1096.65 895.189 1097.69 894.376 1098.27 892.983C1098.96 891.591 1098.9 890.256 1098.09 888.979L1050.36 803.664Z" fill="#BE894B"/>
<path d="M1159.48 785.905V824.209L1159.31 824.383C1167.96 821.946 1176.55 821.191 1185.08 822.12C1193.73 822.932 1201.33 825.196 1207.91 828.91C1214.59 832.625 1219.78 837.674 1223.47 844.058C1227.16 850.326 1228.43 857.697 1227.28 866.17C1226.35 872.67 1224.62 878.126 1222.09 882.537C1219.55 886.948 1216.38 890.488 1212.58 893.158C1208.77 895.711 1204.45 897.51 1199.61 898.555C1194.76 899.716 1189.52 900.296 1183.87 900.296C1179.03 900.296 1174.93 900.122 1171.59 899.774C1168.25 899.542 1165.02 899.251 1161.9 898.903C1158.79 898.555 1155.45 898.265 1151.87 898.033C1148.41 897.684 1144.21 897.51 1139.25 897.51H1134.75V896.117L1139.25 895.247C1140.63 895.015 1141.73 894.376 1142.53 893.332C1143.46 892.171 1143.92 890.894 1143.92 889.501V785.208C1143.92 783.815 1143.46 782.596 1142.53 781.552C1141.73 780.391 1140.63 779.695 1139.25 779.462L1134.75 778.592V777.199H1168.48V778.592L1164.33 779.462C1162.94 779.695 1161.79 780.391 1160.87 781.552C1160.06 782.596 1159.66 783.815 1159.66 785.208L1159.48 785.905ZM1212.06 865.126C1213.21 857.232 1212.35 850.384 1209.46 844.58C1206.58 838.777 1202.49 834.25 1197.18 831C1192 827.633 1186 825.718 1179.2 825.254C1172.4 824.673 1165.71 825.718 1159.14 828.388V894.899C1160.98 895.363 1163.46 895.885 1166.57 896.466C1169.69 897.046 1173.03 897.336 1176.6 897.336C1180.29 897.336 1184.04 896.93 1187.85 896.117C1191.65 895.189 1195.17 893.564 1198.4 891.242C1201.74 888.921 1204.62 885.671 1207.04 881.492C1209.58 877.313 1211.31 871.916 1212.23 865.3L1212.06 865.126Z" fill="#BE894B"/>
<path d="M1359 779.462C1357.62 779.695 1356.47 780.391 1355.54 781.552C1354.74 782.596 1354.33 783.815 1354.33 785.208V889.501C1354.33 890.894 1354.74 892.171 1355.54 893.332C1356.47 894.376 1357.62 895.015 1359 895.247L1363.5 896.117V897.51H1329.78V896.117L1334.27 895.247C1335.66 895.015 1336.75 894.376 1337.56 893.332C1338.48 892.171 1338.94 890.894 1338.94 889.501V824.557H1263.02V889.501C1263.02 890.894 1263.42 892.171 1264.23 893.332C1265.15 894.376 1266.31 895.015 1267.69 895.247L1272.19 896.117V897.51H1238.46V896.117L1242.96 895.247C1244.34 895.015 1245.44 894.376 1246.24 893.332C1247.17 892.171 1247.63 890.894 1247.63 889.501V785.208C1247.63 783.815 1247.17 782.596 1246.24 781.552C1245.44 780.391 1244.34 779.695 1242.96 779.462L1238.46 778.592V777.199H1272.19V778.592L1267.69 779.462C1266.31 779.695 1265.15 780.391 1264.23 781.552C1263.42 782.596 1263.02 783.815 1263.02 785.208V820.901H1338.94V785.208C1338.94 783.815 1338.48 782.596 1337.56 781.552C1336.75 780.391 1335.66 779.695 1334.27 779.462L1329.78 778.592V777.199H1363.5V778.592L1359 779.462Z" fill="#BE894B"/>
<path d="M1439.07 775.284C1447.84 775.284 1456.02 776.909 1463.63 780.159C1471.36 783.409 1478.04 787.878 1483.69 793.565C1489.46 799.137 1494.01 805.695 1497.36 813.24C1500.7 820.785 1502.37 828.852 1502.37 837.442C1502.37 846.031 1500.7 854.098 1497.36 861.643C1494.01 869.188 1489.46 875.804 1483.69 881.492C1478.04 887.064 1471.36 891.474 1463.63 894.725C1456.02 897.975 1447.84 899.6 1439.07 899.6C1430.31 899.6 1422.07 897.975 1414.34 894.725C1406.73 891.474 1400.05 887.064 1394.28 881.492C1388.63 875.804 1384.14 869.188 1380.79 861.643C1377.45 854.098 1375.78 846.031 1375.78 837.442C1375.78 828.852 1377.45 820.785 1380.79 813.24C1384.14 805.695 1388.63 799.137 1394.28 793.565C1400.05 787.878 1406.73 783.409 1414.34 780.159C1422.07 776.909 1430.31 775.284 1439.07 775.284ZM1439.07 896.117C1445.65 896.117 1451.76 894.608 1457.41 891.591C1463.17 888.457 1468.19 884.278 1472.45 879.054C1476.83 873.715 1480.23 867.505 1482.66 860.424C1485.19 853.228 1486.46 845.567 1486.46 837.442C1486.46 829.316 1485.19 821.714 1482.66 814.633C1480.23 807.552 1476.83 801.342 1472.45 796.003C1468.19 790.664 1463.17 786.485 1457.41 783.467C1451.76 780.333 1445.65 778.766 1439.07 778.766C1432.5 778.766 1426.33 780.333 1420.57 783.467C1414.92 786.485 1409.9 790.664 1405.52 796.003C1401.26 801.342 1397.86 807.552 1395.32 814.633C1392.9 821.714 1391.69 829.316 1391.69 837.442C1391.69 845.567 1392.9 853.228 1395.32 860.424C1397.86 867.505 1401.26 873.715 1405.52 879.054C1409.9 884.278 1414.92 888.457 1420.57 891.591C1426.33 894.608 1432.5 896.117 1439.07 896.117Z" fill="#BE894B"/>
<path d="M407.778 675.896C375.197 680.909 362.037 674.348 361.07 656.149C370.047 670.689 378.442 675.743 409.645 669.708C462.914 657.517 467.091 640.809 542.104 603.217C613.003 576.284 651.754 573.112 707.898 530.849L711.027 533.043C645.52 578.286 617.832 580.184 544.783 609.064C483.799 635.985 459.836 663.589 407.778 675.896Z" fill="#BE894B"/>
<path d="M632.499 608.228C683.094 589.035 700.565 588.143 764.492 557.269L759.479 554.763C710.657 584.114 660.058 593.575 629.993 604.887L568.173 633.075C549.799 640.594 519.72 647.492 508.86 630.784L505.301 633.075C520.261 647.32 543.116 645.849 567.338 635.796L632.499 608.228Z" fill="#BE894B"/>
<path d="M400.984 554.644C423.789 539.94 467.369 519.477 517.027 500.532C476.946 522.155 442.863 536.384 403.635 563.163L285.215 638.494C283.67 668.966 352.642 658.352 396.081 629.113C428.448 618.142 456.23 602.38 484.634 584.837L621.639 520.511L486.304 589.014C458.736 605.722 445.004 616.209 398.588 634.961C334.262 675.06 274.113 669.212 275.906 631.322C285.215 624.101 361.944 581.95 400.984 554.644Z" fill="#BE894B"/>
<path d="M836.4 370.692C991.915 415.252 1174.48 375.873 1256.32 319.075C1196.03 378.406 1062.31 426.544 836.4 381.836C737.119 356.774 729.366 342.268 612.644 382.671C574.216 396.038 567.522 394.881 538.609 402.705L470.627 417.758C346.152 463.366 285.74 459.433 291.851 475.4C311.38 526.424 422.886 514.793 496.879 489.62C502.601 487.583 508.434 485.406 514.378 483.082C505.042 475.353 500.63 465.79 502.049 455.032C509.056 432.795 541.852 429.975 586.748 435.301C655.109 444.747 662.941 442.484 724.588 445.326C776.383 447.097 801.445 437.807 835.84 431.893C801.799 442.674 782.581 448.51 742.281 449.95C680.336 452.137 645.908 449.233 584.242 442.82C544.082 436.847 514.253 434.473 511.562 458.692C506.55 503.804 630.188 495.45 707.872 515.425C800.017 560.733 872.305 595.377 925.724 603.216C1024.11 624.101 1244.85 501.298 1333.68 519.283C1198.06 521.124 1066.07 624.937 913.193 610.735C855.606 605.385 727.493 534.194 696.687 521.124C665.881 508.054 604.333 507.213 563.357 501.298C541.679 498.168 524.934 491.803 514.417 483.115C508.877 485.358 503.007 487.535 496.879 489.62C341.101 545.074 267.187 496.578 280.345 463.365C416.326 431.523 433.088 422.082 468.12 411.075C503.153 400.067 561.461 395.202 608.953 375.464C716.234 330.877 767.193 353.432 836.4 370.692Z" fill="#BE894B"/>
<path d="M1229.06 998.748C1261.64 993.735 1274.8 1000.3 1275.76 1018.49C1266.79 1003.96 1258.39 998.901 1227.19 1004.94C1173.92 1017.13 1169.74 1033.83 1094.73 1071.43C1023.83 1098.36 985.081 1101.53 928.936 1143.79L925.807 1141.6C991.315 1096.36 1019 1094.46 1092.05 1065.58C1153.04 1038.66 1177 1011.05 1229.06 998.748Z" fill="#BE894B"/>
<path d="M1004.33 1066.41C953.74 1085.61 936.269 1086.5 872.342 1117.37L877.354 1119.88C926.176 1090.53 976.775 1081.07 1006.84 1069.76L1068.66 1041.57C1087.03 1034.05 1117.11 1027.15 1127.97 1043.86L1131.53 1041.57C1116.57 1027.32 1093.72 1028.79 1069.5 1038.85L1004.33 1066.41Z" fill="#BE894B"/>
<path d="M1235.85 1120C1213.04 1134.7 1169.46 1155.17 1119.81 1174.11C1159.89 1152.49 1193.97 1138.26 1233.2 1111.48L1351.62 1036.15C1353.16 1005.68 1284.19 1016.29 1240.75 1045.53C1208.39 1056.5 1180.6 1072.26 1152.2 1089.81L1015.19 1154.13L1150.53 1085.63C1178.1 1068.92 1191.83 1058.43 1238.25 1039.68C1302.57 999.583 1362.72 1005.43 1360.93 1043.32C1351.62 1050.54 1274.89 1092.69 1235.85 1120Z" fill="#BE894B"/>
<path d="M800.434 1303.95C644.919 1259.39 462.352 1298.77 380.517 1355.57C440.804 1296.24 574.528 1248.1 800.434 1292.81C899.715 1317.87 907.468 1332.37 1024.19 1291.97C1062.62 1278.6 1069.31 1279.76 1098.22 1271.94L1166.21 1256.88C1290.68 1211.28 1351.09 1215.21 1344.98 1199.24C1325.45 1148.22 1213.95 1159.85 1139.95 1185.02C1134.23 1187.06 1128.4 1189.24 1122.46 1191.56C1131.79 1199.29 1136.2 1208.85 1134.78 1219.61C1127.78 1241.85 1094.98 1244.67 1050.09 1239.34C981.724 1229.9 973.892 1232.16 912.245 1229.32C860.45 1227.55 835.388 1236.84 800.994 1242.75C835.035 1231.97 854.252 1226.13 894.552 1224.69C956.497 1222.51 990.926 1225.41 1052.59 1231.82C1092.75 1237.8 1122.58 1240.17 1125.27 1215.95C1130.28 1170.84 1006.65 1179.19 928.961 1159.22C836.816 1113.91 764.528 1079.27 711.109 1071.43C612.727 1050.54 391.987 1173.34 303.149 1155.36C438.769 1153.52 570.762 1049.71 723.64 1063.91C781.228 1069.26 909.34 1140.45 940.146 1153.52C970.952 1166.59 1032.5 1167.43 1073.48 1173.34C1095.15 1176.47 1111.9 1182.84 1122.42 1191.53C1127.96 1189.28 1133.83 1187.11 1139.95 1185.02C1295.73 1129.57 1369.65 1178.07 1356.49 1211.28C1220.51 1243.12 1203.75 1252.56 1168.71 1263.57C1133.68 1274.58 1075.37 1279.44 1027.88 1299.18C920.6 1343.77 869.641 1321.21 800.434 1303.95Z" fill="#BE894B"/>
<path d="M327.45 1390.05C173.206 1254.58 78.6289 1058.6 78.6289 837.181C78.6289 428.942 409.571 98 817.81 98C1003.36 98 1167.45 161.682 1297.25 274.602" stroke="#BE894B" stroke-width="4"/>
</g>
<defs>
<clipPath id="clip0_90_18">
<rect width="1582" height="1616" fill="white"/>
</clipPath>
</defs>
</svg>
