<svg viewBox="0 0 1582 1616" fill="none" xmlns="http://www.w3.org/2000/svg">
<rect width="1582" height="1616" rx="300" fill="#F4EEE5"/>
<g transform="translate(158.2,161.6) scale(0.8)">
<path d="M407.778 675.896C375.197 680.909 362.037 674.348 361.07 656.149C370.047 670.689 378.442 675.743 409.645 669.708C462.914 657.517 467.091 640.809 542.104 603.217C613.003 576.284 651.754 573.112 707.898 530.849L711.027 533.043C645.52 578.286 617.832 580.184 544.783 609.064C483.799 635.985 459.836 663.589 407.778 675.896Z" fill="#BE894B"/>
<path d="M632.499 608.228C683.094 589.035 700.565 588.143 764.492 557.269L759.479 554.763C710.657 584.114 660.058 593.575 629.993 604.887L568.173 633.075C549.799 640.594 519.72 647.492 508.86 630.784L505.301 633.075C520.261 647.32 543.116 645.849 567.338 635.796L632.499 608.228Z" fill="#BE894B"/>
<path d="M400.984 554.644C423.789 539.94 467.369 519.477 517.027 500.532C476.946 522.155 442.863 536.384 403.635 563.163L285.215 638.494C283.67 668.966 352.642 658.352 396.081 629.113C428.448 618.142 456.23 602.38 484.634 584.837L621.639 520.511L486.304 589.014C458.736 605.722 445.004 616.209 398.588 634.961C334.262 675.06 274.113 669.212 275.906 631.322C285.215 624.101 361.944 581.95 400.984 554.644Z" fill="#BE894B"/>
<path d="M836.4 370.692C991.915 415.252 1174.48 375.873 1256.32 319.075C1196.03 378.406 1062.31 426.544 836.4 381.836C737.119 356.774 729.366 342.268 612.644 382.671C574.216 396.038 567.522 394.881 538.609 402.705L470.627 417.758C346.152 463.366 285.74 459.433 291.851 475.4C311.38 526.424 422.886 514.793 496.879 489.62C502.601 487.583 508.434 485.406 514.378 483.082C505.042 475.353 500.63 465.79 502.049 455.032C509.056 432.795 541.852 429.975 586.748 435.301C655.109 444.747 662.941 442.484 724.588 445.326C776.383 447.097 801.445 437.807 835.84 431.893C801.799 442.674 782.581 448.51 742.281 449.95C680.336 452.137 645.908 449.233 584.242 442.82C544.082 436.847 514.253 434.473 511.562 458.692C506.55 503.804 630.188 495.45 707.872 515.425C800.017 560.733 872.305 595.377 925.724 603.216C1024.11 624.101 1244.85 501.298 1333.68 519.283C1198.06 521.124 1066.07 624.937 913.193 610.735C855.606 605.385 727.493 534.194 696.687 521.124C665.881 508.054 604.333 507.213 563.357 501.298C541.679 498.168 524.934 491.803 514.417 483.115C508.877 485.358 503.007 487.535 496.879 489.62C341.101 545.074 267.187 496.578 280.345 463.365C416.326 431.523 433.088 422.082 468.12 411.075C503.153 400.067 561.461 395.202 608.953 375.464C716.234 330.877 767.193 353.432 836.4 370.692Z" fill="#BE894B"/>
<path d="M1229.06 998.748C1261.64 993.735 1274.8 1000.3 1275.76 1018.49C1266.79 1003.96 1258.39 998.901 1227.19 1004.94C1173.92 1017.13 1169.74 1033.83 1094.73 1071.43C1023.83 1098.36 985.081 1101.53 928.936 1143.79L925.807 1141.6C991.315 1096.36 1019 1094.46 1092.05 1065.58C1153.04 1038.66 1177 1011.05 1229.06 998.748Z" fill="#BE894B"/>
<path d="M1004.33 1066.41C953.74 1085.61 936.269 1086.5 872.342 1117.37L877.354 1119.88C926.176 1090.53 976.775 1081.07 1006.84 1069.76L1068.66 1041.57C1087.03 1034.05 1117.11 1027.15 1127.97 1043.86L1131.53 1041.57C1116.57 1027.32 1093.72 1028.79 1069.5 1038.85L1004.33 1066.41Z" fill="#BE894B"/>
<path d="M1235.85 1120C1213.04 1134.7 1169.46 1155.17 1119.81 1174.11C1159.89 1152.49 1193.97 1138.26 1233.2 1111.48L1351.62 1036.15C1353.16 1005.68 1284.19 1016.29 1240.75 1045.53C1208.39 1056.5 1180.6 1072.26 1152.2 1089.81L1015.19 1154.13L1150.53 1085.63C1178.1 1068.92 1191.83 1058.43 1238.25 1039.68C1302.57 999.583 1362.72 1005.43 1360.93 1043.32C1351.62 1050.54 1274.89 1092.69 1235.85 1120Z" fill="#BE894B"/>
<path d="M800.434 1303.95C644.919 1259.39 462.352 1298.77 380.517 1355.57C440.804 1296.24 574.528 1248.1 800.434 1292.81C899.715 1317.87 907.468 1332.37 1024.19 1291.97C1062.62 1278.6 1069.31 1279.76 1098.22 1271.94L1166.21 1256.88C1290.68 1211.28 1351.09 1215.21 1344.98 1199.24C1325.45 1148.22 1213.95 1159.85 1139.95 1185.02C1134.23 1187.06 1128.4 1189.24 1122.46 1191.56C1131.79 1199.29 1136.2 1208.85 1134.78 1219.61C1127.78 1241.85 1094.98 1244.67 1050.09 1239.34C981.724 1229.9 973.892 1232.16 912.245 1229.32C860.45 1227.55 835.388 1236.84 800.994 1242.75C835.035 1231.97 854.252 1226.13 894.552 1224.69C956.497 1222.51 990.926 1225.41 1052.59 1231.82C1092.75 1237.8 1122.58 1240.17 1125.27 1215.95C1130.28 1170.84 1006.65 1179.19 928.961 1159.22C836.816 1113.91 764.528 1079.27 711.109 1071.43C612.727 1050.54 391.987 1173.34 303.149 1155.36C438.769 1153.52 570.762 1049.71 723.64 1063.91C781.228 1069.26 909.34 1140.45 940.146 1153.52C970.952 1166.59 1032.5 1167.43 1073.48 1173.34C1095.15 1176.47 1111.9 1182.84 1122.42 1191.53C1127.96 1189.28 1133.83 1187.11 1139.95 1185.02C1295.73 1129.57 1369.65 1178.07 1356.49 1211.28C1220.51 1243.12 1203.75 1252.56 1168.71 1263.57C1133.68 1274.58 1075.37 1279.44 1027.88 1299.18C920.6 1343.77 869.641 1321.21 800.434 1303.95Z" fill="#BE894B"/>
<path d="M327.45 1390.05C173.206 1254.58 78.6289 1058.6 78.6289 837.181C78.6289 428.942 409.571 98 817.81 98C1003.36 98 1167.45 161.682 1297.25 274.602" stroke="#BE894B" stroke-width="34"/>
</g>
</svg>
